# xmcd
#
# Track frame offsets: 
#        150
#        22413
#        43617
#        62847
#        77091
#        89870
#        110847
#        127003
#        143545
#        159370
#
# Disc length: 2364 seconds
#
# Revision: 2
# Processed by: cddbd v1.5.2PL0 Copyright (c) Steve Scherf et al.
# Submitted via: ExactAudioCopy v0.90b4
#
DISCID=8f093a0a
DTITLE=DJ Cam Quartet - Saint Germain des Pres - Cafe 9 [CD2]
DYEAR=2007
DGENRE=Nu Jazz
TTITLE0=Rebirth Of Cool
TTITLE1=So Sweet
TTITLE2=New York New York
TTITLE3=It's Yours (Feat. Inlove)
TTITLE4=Tribute To J Dilla
TTITLE5=Raise Up
TTITLE6=Saint-Germain
TTITLE7=Hold Tight
TTITLE8=Visions
TTITLE9=Back In The Days
EXTD=YEAR: 2007
EXTT0=
EXTT1=
EXTT2=
EXTT3=
EXTT4=
EXTT5=
EXTT6=
EXTT7=
EXTT8=
EXTT9=
PLAYORDER=
